<?xml version="1.0" standalone="no"?><!DOCTYPE svg PUBLIC "-//W3C//DTD SVG 1.1//EN" "http://www.w3.org/Graphics/SVG/1.1/DTD/svg11.dtd"><svg t="1483954888350" class="icon" style="" viewBox="0 0 1024 1024" version="1.1" xmlns="http://www.w3.org/2000/svg" p-id="15030" xmlns:xlink="http://www.w3.org/1999/xlink" width="12" height="12"><defs><style type="text/css"></style></defs><path d="M512 938.666667C558.933333 938.666667 597.333333 900.266667 597.333333 853.333333L426.666667 853.333333C426.666667 900.266667 465.066667 938.666667 512 938.666667ZM789.333333 682.666667 789.333333 448C789.333333 317.013333 698.453333 207.36 576 178.346667L576 149.333333C576 113.92 547.413333 85.333333 512 85.333333 476.586667 85.333333 448 113.92 448 149.333333L448 178.346667C325.546667 207.36 234.666667 317.013333 234.666667 448L234.666667 682.666667 149.333333 768 149.333333 810.666667 874.666667 810.666667 874.666667 768 789.333333 682.666667Z" p-id="15031"></path></svg>