<?xml version="1.0" standalone="no"?><!DOCTYPE svg PUBLIC "-//W3C//DTD SVG 1.1//EN" "http://www.w3.org/Graphics/SVG/1.1/DTD/svg11.dtd"><svg t="1483954838292" class="icon" style="" viewBox="0 0 1024 1024" version="1.1" xmlns="http://www.w3.org/2000/svg" p-id="13694" xmlns:xlink="http://www.w3.org/1999/xlink" width="12" height="12"><defs><style type="text/css"></style></defs><path d="M512 0C229.236364 0 0 229.236364 0 512c0 282.786909 229.236364 512 512 512s512-229.213091 512-512C1024 229.236364 794.763636 0 512 0zM657.291636 512.023273c0 77.195636-60.392727 139.729455-136.424727 144.407273l-175.732364 151.714909-22.877091-13.242182 58.228364-222.021818c-8.634182-18.548364-13.800727-39.074909-13.800727-60.858182 0-77.195636 60.369455-139.729455 136.378182-144.430545l175.802182-151.714909 22.877091 13.172364-58.251636 222.068364C652.125091 469.690182 657.291636 490.193455 657.291636 512.023273zM512 512m-66.048 0a2.838 2.838 0 1 0 132.096 0 2.838 2.838 0 1 0-132.096 0Z" p-id="13695"></path></svg>