<?xml version="1.0" standalone="no"?><!DOCTYPE svg PUBLIC "-//W3C//DTD SVG 1.1//EN" "http://www.w3.org/Graphics/SVG/1.1/DTD/svg11.dtd"><svg t="1483954867812" class="icon" style="" viewBox="0 0 1024 1024" version="1.1" xmlns="http://www.w3.org/2000/svg" p-id="14364" xmlns:xlink="http://www.w3.org/1999/xlink" width="12" height="12"><defs><style type="text/css"></style></defs><path d="M957.120512 134.912c-17.568768 6.208512-886.848512 312.479744-903.936 318.528512-14.528512 5.12-17.824768 17.664-0.512 24.511488 20.543488 8.256512 194.367488 77.888512 194.367488 77.888512h-0.064512l115.264512 46.175232S917.088256 194.52928 924.608512 189.024256c7.519232-5.536768 16.287744 4.864 10.815488 10.815488-5.472256 5.984256-403.008512 435.904512-403.008512 435.904512h-0.063488l-23.136256 25.791488 30.656512 16.480256s238.08 128.159744 255.039488 137.312256c14.848 7.999488 34.208768 1.343488 38.496256-17.152 5.056512-21.824512 145.664-627.808256 148.800512-641.216512 4.096-17.567744-7.488512-28.255232-25.088-22.079488zM361.216 878.688256c0 12.640256 7.104512 16.128 16.960512 7.231488 12.8-11.679744 145.855488-131.072 145.855488-131.072l-162.816-84.287488v208.128z" fill="" p-id="14365"></path></svg>