<?xml version="1.0" standalone="no"?><!DOCTYPE svg PUBLIC "-//W3C//DTD SVG 1.1//EN" "http://www.w3.org/Graphics/SVG/1.1/DTD/svg11.dtd"><svg t="1483954998545" class="icon" style="" viewBox="0 0 1024 1024" version="1.1" xmlns="http://www.w3.org/2000/svg" p-id="20198" xmlns:xlink="http://www.w3.org/1999/xlink" width="12" height="12"><defs><style type="text/css"></style></defs><path d="M504.36797 16.453168c-277.847191 0-503.744217 225.89602-503.744217 503.74321 0 277.842156 225.89602 503.737169 503.744217 503.737169 277.840143 0 503.736162-225.895013 503.736162-503.737169C1008.104132 242.349187 782.208112 16.453168 504.36797 16.453168L504.36797 16.453168zM583.075549 705.161355c-37.782578 56.66833-76.350511 100.74985-141.6819 100.74985-44.074473-7.08631-62.965258-39.3553-52.731491-71.629325l83.429773-277.058816c2.36311-7.080269-1.574736-14.166579-7.867637-16.525662-6.297935-2.364117-18.107445 5.509561-29.123546 17.31303l-49.586047 62.183932c-1.573729-10.233768 0-26.764464 0-33.849767 37.780565-56.66833 100.745823-102.321565 142.464233-102.321565 40.142668 3.934825 59.032447 36.206836 51.946137 71.628318l-84.218147 278.629524c-0.784347 6.298942 2.361096 12.596878 7.871664 14.955961 6.293908 2.364117 18.889779-5.510568 29.909907-17.31303l50.370394-60.608189C585.434632 680.762015 583.075549 698.862413 583.075549 705.161355L583.075549 705.161355zM572.055421 343.100044c-32.273018 0-58.244072-23.618013-58.244072-57.461739 0-34.6321 25.971055-57.455697 58.244072-57.455697 32.26899 0 58.245079 23.610965 58.245079 57.455697C630.299493 320.270406 604.323404 343.100044 572.055421 343.100044L572.055421 343.100044zM572.055421 343.100044" p-id="20199"></path></svg>