<?xml version="1.0" standalone="no"?><!DOCTYPE svg PUBLIC "-//W3C//DTD SVG 1.1//EN" "http://www.w3.org/Graphics/SVG/1.1/DTD/svg11.dtd"><svg t="1485136592094" class="icon" style="" viewBox="0 0 1024 1024" version="1.1" xmlns="http://www.w3.org/2000/svg" p-id="24019" xmlns:xlink="http://www.w3.org/1999/xlink" width="12" height="12"><defs><style type="text/css"></style></defs><path d="M668.938219 876.065033C664.743121 861.002323 651.1008 850.580644 635.509574 850.580644L561.847637 850.580644 561.847637 724.810323C543.184412 727.964902 524.042219 729.682581 504.553186 729.682581 485.047637 729.682581 465.905444 727.964902 447.225702 724.810323L447.225702 850.580644 373.629833 850.580644C358.038607 850.580644 344.363251 861.002323 340.201186 876.065033L314.056154 970.388644C311.182349 980.876386 313.296412 992.123872 319.853316 1000.778323 326.443251 1009.465807 336.650219 1014.569291 347.501316 1014.569291L661.621574 1014.569291 661.918863 1014.569291C681.077574 1014.569291 696.602735 998.961549 696.602735 979.720258 696.602735 974.930581 695.661316 970.355614 693.927121 966.210065L668.938219 876.065033 668.938219 876.065033ZM857.222091 128.743226C847.609702 126.199742 837.865186 124.961033 828.170219 124.961033 823.694349 124.961033 819.234993 125.258323 814.775637 125.753807L814.775637 32.801033C814.775637 14.699356 800.175379 0 782.139767 0L227.016154 0C208.964026 0 194.330735 14.699356 194.330735 32.801033L194.330735 125.753807C189.871379 125.258323 185.412026 124.961033 180.95267 124.961033 171.257702 124.961033 161.513186 126.199742 151.9008 128.743226 75.728412 149.140644 35.148284 245.495742 61.243767 343.997935 84.102091 430.096516 150.331767 489.356386 217.502863 489.356386 220.905186 489.356386 224.307509 489.009549 227.726349 488.679226 230.220284 494.096516 232.862863 499.381677 235.621058 504.584258 236.133058 505.558709 236.645058 506.533161 237.157058 507.441549 241.220026 514.972902 245.547251 522.306065 250.122219 529.374967 250.634219 530.167742 251.146219 530.977033 251.691251 531.769807 256.480928 539.036902 261.4688 546.155356 266.737444 553.026065 266.886091 553.207742 267.034735 553.389419 267.199895 553.554581 278.265702 567.907098 290.487637 581.186065 303.601444 593.341935 303.865702 593.556644 304.063895 593.820902 304.278607 594.002581 310.769444 599.981419 317.508026 605.629935 324.378735 611.014193 324.725574 611.278451 325.039379 611.493161 325.353186 611.740902 353.876542 633.740386 385.983895 650.652902 420.502607 661.223226 420.618219 661.272774 420.717316 661.289291 420.832928 661.338839 429.503895 663.948386 438.257444 666.211098 447.176154 668.044386L447.225702 668.044386C456.458219 669.927226 465.839379 671.380644 475.303121 672.338581 475.517833 672.388128 475.749058 672.388128 475.947251 672.404644 485.377961 673.362581 494.9408 673.891098 504.553186 673.891098 514.182091 673.891098 523.678863 673.362581 533.076542 672.404644 533.307767 672.388128 533.538993 672.388128 533.803251 672.338581 543.250477 671.397161 552.565574 669.927226 561.765058 668.044386L561.831121 668.044386 561.930219 668.044386C570.832412 666.211098 579.585961 663.964902 588.207379 661.355356 588.339509 661.305807 588.455121 661.272774 588.603767 661.239742 623.122477 650.652902 655.1968 633.756902 683.73667 611.757419 684.050477 611.526193 684.364284 611.261935 684.678091 611.030709 691.631379 605.662967 698.336928 599.964902 704.811251 594.019098 705.025961 593.820902 705.257186 593.606193 705.471895 593.374967 718.635251 581.235614 730.84067 567.890581 741.956026 553.538065 742.121186 553.372902 742.2368 553.224258 742.352412 553.042581 747.637574 546.171872 752.658477 539.053419 757.448154 531.769807 757.960154 530.993549 758.48867 530.200774 759.00067 529.408 763.575637 522.289549 767.919379 514.956386 771.998863 507.441549 772.494349 506.516644 772.989833 505.591742 773.485316 504.633807 776.260026 499.414709 778.902607 494.096516 781.413058 488.679226 784.815379 489.009549 788.250735 489.339872 791.620026 489.339872 858.807637 489.339872 925.053833 430.096516 947.879121 343.997935 974.007637 245.495742 933.394477 149.140644 857.222091 128.743226L857.222091 128.743226ZM114.921186 329.661935C97.034219 262.144 120.53667 194.840774 166.203767 182.635356 171.009961 181.347098 175.9648 180.719484 180.985702 180.719484 185.412026 180.719484 189.871379 181.314065 194.347251 182.238967L194.347251 336.995098C194.347251 346.425807 194.793186 355.773935 195.519895 365.022967 195.602477 366.278193 195.668542 367.516902 195.767637 368.772128 196.510863 377.542193 197.633961 386.213161 199.0048 394.818065 199.252542 396.354065 199.5168 397.840516 199.748026 399.36 201.250993 407.898839 202.985186 416.289033 205.066219 424.547098 205.346993 425.835356 205.710349 427.107098 206.04067 428.395356 206.420542 429.848774 206.783895 431.236128 207.163767 432.656516 167.838863 426.215226 129.3728 384.148644 114.921186 329.661935L114.921186 329.661935ZM674.1408 266.157419 581.9808 335.607742 615.492026 445.473033C616.7968 449.734193 615.2608 454.358709 611.660284 457.001291 609.826993 458.322581 607.663379 459.016258 605.5328 459.016258 603.468284 459.016258 601.370735 458.405161 599.636542 457.166451L504.553186 391.481807 409.486349 457.166451C405.869316 459.709935 400.980542 459.610839 397.396542 457.001291 393.829058 454.358709 392.309574 449.734193 393.630863 445.473033L427.076026 335.591226 334.932542 266.157419C331.381574 263.481807 329.878607 258.791226 331.265961 254.546581 332.620284 250.334967 336.518091 247.411614 340.977444 247.312516L456.705961 244.983742 494.742607 136.406709C496.179509 132.228128 500.126863 129.436902 504.553186 129.436902 508.979509 129.436902 512.910349 132.228128 514.363767 136.406709L552.383895 244.983742 668.079379 247.312516C672.555251 247.411614 676.469574 250.334967 677.823895 254.546581 679.161702 258.791226 677.7248 263.481807 674.1408 266.157419L674.1408 266.157419ZM894.234735 329.661935C879.766607 384.148644 841.350091 426.215226 801.975637 432.656516 802.372026 431.252644 802.735379 429.848774 803.098735 428.395356 803.445574 427.107098 803.792412 425.868386 804.106219 424.547098 806.170735 416.289033 807.921444 407.898839 809.374863 399.343484 809.655637 397.840516 809.886863 396.354065 810.118091 394.818065 811.505444 386.213161 812.612026 377.542193 813.371767 368.772128 813.487379 367.516902 813.553444 366.294709 813.636026 365.072516 814.346219 355.790451 814.792154 346.409291 814.792154 336.978581L814.792154 182.238967C819.251509 181.314065 823.743895 180.719484 828.186735 180.719484 833.174607 180.719484 838.145961 181.347098 842.919121 182.635356 888.635767 194.840774 912.121702 262.144 894.234735 329.661935L894.234735 329.661935Z" p-id="24020"></path></svg>