<?xml version="1.0" standalone="no"?><!DOCTYPE svg PUBLIC "-//W3C//DTD SVG 1.1//EN" "http://www.w3.org/Graphics/SVG/1.1/DTD/svg11.dtd"><svg t="1483954714896" class="icon" style="" viewBox="0 0 1024 1024" version="1.1" xmlns="http://www.w3.org/2000/svg" p-id="12459" xmlns:xlink="http://www.w3.org/1999/xlink" width="12" height="12"><defs><style type="text/css"></style></defs><path d="M850.705654 70.931492 727.313346 70.931492l-309.928748 0.51063-246.13891-0.51063c-24.915459 0-45.157479 18.7132-45.157479 41.828664l0 796.058544c0 23.088858 20.243043 41.882899 45.157479 41.882899l435.5754 0c12.082176 0 23.680329-4.50971 32.163537-12.456706l243.884566-230.245941c8.322549-7.839549 12.993942-18.4717 12.993942-29.42517L895.863133 112.760157C895.863133 89.644693 875.621113 70.931492 850.705654 70.931492zM216.241484 239.158938 804.956703 239.158938l0 41.963741L216.241484 281.122679 216.241484 239.158938zM216.241484 364.993878 804.956703 364.993878l0 41.882899L216.241484 406.876778 216.241484 364.993878zM533.259698 532.738323 216.241484 532.738323l0-41.989323 317.018214 0L533.259698 532.738323zM850.490759 657.310503l-271.698029 0 0 251.080455-44.997843 0L533.794887 639.699404c0-13.960966 12.135388-25.12933 27.061332-25.12933l289.633516 0L850.489736 657.310503z" p-id="12460"></path></svg>