<?xml version="1.0" standalone="no"?><!DOCTYPE svg PUBLIC "-//W3C//DTD SVG 1.1//EN" "http://www.w3.org/Graphics/SVG/1.1/DTD/svg11.dtd"><svg t="1483954964617" class="icon" style="" viewBox="0 0 1024 1024" version="1.1" xmlns="http://www.w3.org/2000/svg" p-id="18967" xmlns:xlink="http://www.w3.org/1999/xlink" width="12" height="12"><defs><style type="text/css"></style></defs><path d="M879.509676 301.431214 651.225413 73.112158c-5.365194-5.331425-12.57541-8.351202-20.154016-8.351202L258.184759 64.760956c-69.051679 0-125.258819 56.19179-125.258819 125.277238l0 642.760113c0 69.086471 56.20714 125.278261 125.258819 125.278261L762.632759 958.076568c69.053726 0 125.227096-56.19179 125.227096-125.278261L887.859855 321.584206C887.859855 314.021973 884.875894 306.777989 879.509676 301.431214zM760.82253 824.248583 259.962242 824.248583c-15.761985 0-28.505217-12.778024-28.505217-28.506241 0-15.746636 12.744255-28.523637 28.505217-28.523637l500.861312 0c15.761985 0 28.505217 12.777001 28.505217 28.523637C789.328771 811.470559 776.584516 824.248583 760.82253 824.248583zM760.82253 682.824597 259.962242 682.824597c-15.761985 0-28.505217-12.761652-28.505217-28.505217 0-15.72924 12.744255-28.506241 28.505217-28.506241l500.861312 0c15.761985 0 28.505217 12.777001 28.505217 28.506241C789.328771 670.062945 776.584516 682.824597 760.82253 682.824597zM760.82253 541.433356 259.962242 541.433356c-15.761985 0-28.505217-12.775978-28.505217-28.504194 0-15.745612 12.744255-28.506241 28.505217-28.506241l500.861312 0c15.761985 0 28.505217 12.760628 28.505217 28.506241C789.328771 528.656355 776.584516 541.433356 760.82253 541.433356zM803.17922 381.866151 676.309718 381.866151c-58.18519 0-105.47217-47.335075-105.47217-105.487519L570.837548 149.526525c0-15.746636 12.745279-28.523637 28.507264-28.523637 15.727193 0 28.472472 12.777001 28.472472 28.523637l0 126.851083c0 26.711362 21.7647 48.459688 48.492434 48.459688l126.868479 0c15.728216 0 28.472472 12.777001 28.472472 28.507264C831.651692 369.08915 818.907437 381.866151 803.17922 381.866151z" p-id="18968"></path></svg>