<?xml version="1.0" standalone="no"?><!DOCTYPE svg PUBLIC "-//W3C//DTD SVG 1.1//EN" "http://www.w3.org/Graphics/SVG/1.1/DTD/svg11.dtd"><svg t="1484798262038" class="icon" style="" viewBox="0 0 1024 1024" version="1.1" xmlns="http://www.w3.org/2000/svg" p-id="4294" xmlns:xlink="http://www.w3.org/1999/xlink" width="12" height="12"><defs><style type="text/css"></style></defs><path d="M979.343 392.403c-8.28-23.919-29.439-42.318-54.278-45.998l-245.631-37.719L573.638 80.534C562.598 56.615 538.679 40.975 512 40.975c-26.679 0-50.598 15.639-61.638 39.559L343.646 308.686 98.934 346.405c-24.839 3.68-45.998 21.159-54.278 45.998-8.28 23.919-1.84 51.518 15.639 68.998l179.394 184.913-41.399 256.671c-4.6 25.759 6.44 51.518 27.599 67.158 11.96 8.28 25.759 12.88 39.559 12.88 11.04 0 22.999-2.76 33.119-8.28L512 859.746l213.432 114.996c10.12 5.52 22.079 8.28 33.119 8.28 13.8 0 27.599-4.6 39.559-12.88 21.159-15.639 32.199-41.399 27.599-67.158L784.31 646.314 964.624 461.4C981.183 443.001 987.623 416.322 979.343 392.403z" p-id="4295"></path></svg>