<?xml version="1.0" standalone="no"?><!DOCTYPE svg PUBLIC "-//W3C//DTD SVG 1.1//EN" "http://www.w3.org/Graphics/SVG/1.1/DTD/svg11.dtd"><svg t="1484020331548" class="icon" style="" viewBox="0 0 1024 1024" version="1.1" xmlns="http://www.w3.org/2000/svg" p-id="13894" xmlns:xlink="http://www.w3.org/1999/xlink" width="12" height="12"><defs><style type="text/css"></style></defs><path d="M846.0288 150.1184c38.4 0 69.632 31.232 69.632 69.632l0 584.6016c0 38.4-31.232 69.632-69.632 69.632L177.9712 873.984c-38.4 0-69.632-31.232-69.632-69.632L108.3392 219.648c0-38.4 31.232-69.632 69.632-69.632L846.0288 150.016M846.0288 108.3392 177.9712 108.3392C116.4288 108.3392 66.56 158.208 66.56 219.648l0 584.6016c0 61.5424 49.8688 111.4112 111.4112 111.4112l668.16 0c61.5424 0 111.4112-49.8688 111.4112-111.4112L957.5424 219.648C957.44 158.208 907.5712 108.3392 846.0288 108.3392L846.0288 108.3392z" p-id="13895"></path><path d="M372.8384 331.0592l61.2352 0 0 361.8816-61.2352 0 0-361.8816Z" p-id="13896"></path><path d="M589.9264 331.0592l61.2352 0 0 361.8816-61.2352 0 0-361.8816Z" p-id="13897"></path><path d="M651.1616 692.9408 580.096 692.9408 372.8384 331.0592 443.904 331.0592Z" p-id="13898"></path></svg>