<?xml version="1.0" standalone="no"?><!DOCTYPE svg PUBLIC "-//W3C//DTD SVG 1.1//EN" "http://www.w3.org/Graphics/SVG/1.1/DTD/svg11.dtd"><svg t="1484020160279" class="icon" style="" viewBox="0 0 1110 1024" version="1.1" xmlns="http://www.w3.org/2000/svg" p-id="7616" xmlns:xlink="http://www.w3.org/1999/xlink" width="13.0078125" height="12"><defs><style type="text/css"></style></defs><path d="M219.811518 225.172775l0 146.13177L60.314136 512.005361 219.811518 652.700817 219.811518 804.188482l809.549738 0L1029.361257 225.172775 219.811518 225.172775zM446.833927 621.862869c-59.965654 0-108.581529-48.615874-108.581529-108.581529s48.615874-108.581529 108.581529-108.581529c59.965654 0 108.576168 48.615874 108.576168 108.581529S506.79422 621.862869 446.833927 621.862869zM795.042178 621.862869c-59.960293 0-108.581529-48.615874-108.581529-108.581529s48.621236-108.581529 108.581529-108.581529c59.971016 0 108.581529 48.615874 108.581529 108.581529S855.007832 621.862869 795.042178 621.862869z" p-id="7617"></path></svg>