<?xml version="1.0" standalone="no"?><!DOCTYPE svg PUBLIC "-//W3C//DTD SVG 1.1//EN" "http://www.w3.org/Graphics/SVG/1.1/DTD/svg11.dtd"><svg t="1484193829765" class="icon" style="" viewBox="0 0 1024 1024" version="1.1" xmlns="http://www.w3.org/2000/svg" p-id="12358" xmlns:xlink="http://www.w3.org/1999/xlink" width="12" height="12"><defs><style type="text/css"></style></defs><path d="M510.384711 229.979882c-247.078305 0-447.375144 279.606139-447.375144 279.606139s200.296839 279.613302 447.375144 279.613302c247.075235 0 447.373097-279.613302 447.373097-279.613302S757.459946 229.979882 510.384711 229.979882L510.384711 229.979882 510.384711 229.979882zM510.384711 677.356049c-92.654236 0-167.766958-75.111698-167.766958-167.770028 0-92.65219 75.111698-167.759795 167.766958-167.759795 92.653213 0 167.759795 75.106582 167.759795 167.759795C678.144506 602.24435 603.037924 677.356049 510.384711 677.356049L510.384711 677.356049 510.384711 677.356049zM510.384711 677.356049" p-id="12359"></path><path d="M398.53939 509.586021c0 14.644535 2.912329 29.278837 8.515954 42.803875 5.598508 13.526061 13.893428 25.928532 24.245194 36.284391 10.354835 10.349719 22.757307 18.643616 36.282345 24.243147 13.526061 5.600555 28.161387 8.516977 42.801828 8.516977 14.640442 0 29.27372-2.917446 42.794665-8.516977 13.531178-5.600555 25.938766-13.893428 36.288484-24.243147 10.350742-10.355859 18.638499-22.763446 24.243147-36.284391 5.605671-13.525038 8.516977-28.15934 8.516977-42.803875 0-14.634302-2.912329-29.271674-8.516977-42.802852-5.605671-13.520945-13.892405-25.928532-24.243147-36.280298-10.349719-10.353812-22.757307-18.648732-36.288484-24.248264-13.520945-5.600555-28.155247-8.512884-42.794665-8.512884-14.641465 0-29.275767 2.912329-42.801828 8.512884-13.525038 5.599532-25.927509 13.894452-36.282345 24.248264-10.351766 10.351766-18.646686 22.759353-24.245194 36.280298C401.45172 480.314347 398.53939 494.951719 398.53939 509.586021L398.53939 509.586021 398.53939 509.586021zM398.53939 509.586021" p-id="12360"></path></svg>