<?xml version="1.0" standalone="no"?><!DOCTYPE svg PUBLIC "-//W3C//DTD SVG 1.1//EN" "http://www.w3.org/Graphics/SVG/1.1/DTD/svg11.dtd"><svg t="1484193367847" class="icon" style="" viewBox="0 0 1024 1024" version="1.1" xmlns="http://www.w3.org/2000/svg" p-id="3109" xmlns:xlink="http://www.w3.org/1999/xlink" width="12" height="12"><defs><style type="text/css"></style></defs><path d="M327.6 884.156l173.519-231.284-113.121 0 0-338.138-120.781 0 0 338.139-113.124 0 173.507 231.283zM560.113 315.057l308.853 0 0 69.403-308.853 0 0-69.403zM560.113 509.383l246.388 0 0-69.402-246.388 0 0 69.402zM560.113 634.306l183.923 0 0-69.403-183.923 0 0 69.403zM560.113 759.232l121.459 0 0-69.402-121.459 0 0 69.402zM560.113 884.156l58.993 0 0-69.402-58.993 0 0 69.402z" p-id="3110"></path></svg>