<?xml version="1.0" standalone="no"?><!DOCTYPE svg PUBLIC "-//W3C//DTD SVG 1.1//EN" "http://www.w3.org/Graphics/SVG/1.1/DTD/svg11.dtd"><svg t="1484193457990" class="icon" style="" viewBox="0 0 1024 1024" version="1.1" xmlns="http://www.w3.org/2000/svg" p-id="5941" xmlns:xlink="http://www.w3.org/1999/xlink" width="12" height="12"><defs><style type="text/css"></style></defs><path d="M99.962689 416.637072c-20.877493-0.041956-37.835723 16.851806-37.870516 37.7293 0 0.119727 0 0.232291 0 0.352017L62.092174 912.26008c-0.041956 20.793582 16.724917 37.715997 37.518498 37.870516 0.914836 0 1.689479-0.493234 2.604314-0.493234l105.938797 0L208.153784 416.706657 101.510952 416.706657C100.948133 416.918481 100.455923 416.637072 99.962689 416.637072L99.962689 416.637072zM961.689862 497.374908c1.422396-22.800285-4.152577-45.493124-15.978926-65.041342-19.09694-31.141254-52.405557-50.766221-88.903819-52.370765-2.288113-0.732687-4.64581-1.224898-7.039323-1.478677L640.214127 378.484124c14.690584-42.333154 22.187325-86.827531 22.172999-131.630946-0.070608-29.28907-3.302209-58.480926-9.643638-87.074148l-0.633427 0c-12.663414-58.755172-70.560032-96.111988-129.315204-83.442434-50.865481 10.959609-86.84902 56.405661-85.87074 108.430548 0 1.90028 0.493234 3.730974 0.562818 5.631254-0.542352 97.758488-63.436798 184.255491-156.268066 214.903511l0 544.404014 494.426763 0 0 0c21.088294 0.119727 41.756009-5.898337 59.480696-17.316387 15.922644-10.587126 28.811186-25.143657 37.377282-42.234917 0.704035-0.914836 1.196245-1.90028 1.830695-2.885723 0.633427-0.985444 0.352017-0.493234 0.493234-0.774643l0 0c2.25946-3.230578 3.991917-6.792707 5.13802-10.558473l81.020268-362.936009c0.753153-3.631714 0.971118-7.355525 0.633427-11.051707 0-0.49221 0-0.985444 0-1.478677C961.619254 499.979222 961.830055 498.43096 961.689862 497.374908L961.689862 497.374908z" p-id="5942"></path></svg>