<?xml version="1.0" standalone="no"?><!DOCTYPE svg PUBLIC "-//W3C//DTD SVG 1.1//EN" "http://www.w3.org/Graphics/SVG/1.1/DTD/svg11.dtd"><svg t="1484193572079" class="icon" style="" viewBox="0 0 1024 1024" version="1.1" xmlns="http://www.w3.org/2000/svg" p-id="9386" xmlns:xlink="http://www.w3.org/1999/xlink" width="12" height="12"><defs><style type="text/css"></style></defs><path d="M366.657262 653.652184l194.139605-55.127552-138.672316-137.808646L366.657262 653.652184zM885.178793 276.135084 746.50136 138.324392 441.424106 441.506483l138.672316 137.811716L885.178793 276.135084zM844.764338 786.500864c0 47.905056-38.83447 86.736457-86.735433 86.736457L237.578442 873.237321c-47.905056 0-86.745666-38.830377-86.745666-86.736457L150.832775 266.052448c0-47.905056 38.839587-86.74055 86.745666-86.74055l346.960153 0 86.745666-86.74055L208.663902 92.571349c-79.839373 0-144.56963 64.726164-144.56963 144.565537l0 578.278519c0 79.839373 64.730257 144.565537 144.56963 144.565537L786.936281 959.980941c79.843466 0 144.573723-64.726164 144.573723-144.565537L931.510004 352.792998l-86.745666 86.745666L844.764338 786.500864zM949.621501 160.368454l-86.671988-86.130659c-14.358009-14.273075-38.419008-13.501502-53.738925 1.720178l-41.59535 41.343617 138.672316 137.810692 41.605583-41.343617C963.204867 198.546985 963.983603 174.637436 949.621501 160.368454z" p-id="9387"></path></svg>